# xmcd
#
# Track frame offsets: 
#        183
#        42675
#        62590
#        99233
#        140660
#        180883
#        221573
#        248800
#
# Disc length: 3657 seconds
#
# Revision: 0
# Processed by: cddbd v1.5.2PL0 Copyright (c) Steve Scherf et al.
# Submitted via: ExactAudioCopy v1.0b1
#
DISCID=6d0e4708
DTITLE=Stamic Quartet - Kozeluh: String Quartets Op. 33 nos. 1-3
DYEAR=1991
DGENRE=Classical
TTITLE0=Quartet, strings, no. 01, C Major   Allegro  Op. 33  No. 1 
TTITLE1=Quartet, strings, no. 01, C Major   Poco largo  Op. 33  No. 1
TTITLE2=Quartet, strings, no. 01, C Major   Andante con variazioni - A
TTITLE2=llegro  Op. 33  No. 1
TTITLE3=Quartet, strings, no. 02, A Major   Un poco vivace  Op. 33  No
TTITLE3=2 
TTITLE4=Quartet, strings, no. 02, A Major   Andante - Allegro  Op. 33 
TTITLE4=No. 2
TTITLE5=Quartet, strings, no. 03, F Major   Allegro  Op. 33  No. 3
TTITLE6=Quartet, strings, no. 03, F Major   Adagio ma non troppo  Op. 
TTITLE6=33  No. 3
TTITLE7=Quartet, strings, no. 03, F Major   Allegretto - Scherzando  O
TTITLE7=p. 33  No. 3 
EXTD=
EXTT0=
EXTT1=
EXTT2=
EXTT3=
EXTT4=
EXTT5=
EXTT6=
EXTT7=
PLAYORDER=
